<?xml version="1.0" encoding="UTF-8" standalone="no"?>
<svg
   xmlns:dc="http://purl.org/dc/elements/1.1/"
   xmlns:cc="http://creativecommons.org/ns#"
   xmlns:rdf="http://www.w3.org/1999/02/22-rdf-syntax-ns#"
   xmlns:svg="http://www.w3.org/2000/svg"
   xmlns="http://www.w3.org/2000/svg"
   xmlns:sodipodi="http://sodipodi.sourceforge.net/DTD/sodipodi-0.dtd"
   xmlns:inkscape="http://www.inkscape.org/namespaces/inkscape"
   width="210mm"
   height="297mm"
   viewBox="0 0 210 297"
   version="1.1"
   id="svg8"
   inkscape:version="1.0.1 (1.0.1+r73)"
   sodipodi:docname="aglti_footer.svg"
   inkscape:export-filename="/home/bilal/Documents/aglti.png"
   inkscape:export-xdpi="200"
   inkscape:export-ydpi="200">
  <defs
     id="defs2" />
  <sodipodi:namedview
     id="base"
     pagecolor="#ffffff"
     bordercolor="#666666"
     borderopacity="1.0"
     inkscape:pageopacity="0.0"
     inkscape:pageshadow="2"
     inkscape:zoom="0.98994948"
     inkscape:cx="510.36083"
     inkscape:cy="493.51117"
     inkscape:document-units="mm"
     inkscape:current-layer="layer1"
     showgrid="false"
     inkscape:window-width="1920"
     inkscape:window-height="1020"
     inkscape:window-x="0"
     inkscape:window-y="0"
     inkscape:window-maximized="1"
     inkscape:document-rotation="0" />
  <metadata
     id="metadata5">
    <rdf:RDF>
      <cc:Work
         rdf:about="">
        <dc:format>image/svg+xml</dc:format>
        <dc:type
           rdf:resource="http://purl.org/dc/dcmitype/StillImage" />
        <dc:title />
      </cc:Work>
    </rdf:RDF>
  </metadata>
  <g
     inkscape:label="Layer 1"
     inkscape:groupmode="layer"
     id="layer1">
    <g
       id="g829"
       transform="translate(12.055536,-41.001148)"
       style="fill:#000000"
       inkscape:export-xdpi="200"
       inkscape:export-ydpi="200">
      <g
         aria-label="AGLTI"
         id="text819"
         style="font-style:normal;font-variant:normal;font-weight:normal;font-stretch:normal;font-size:2.82222px;line-height:0;font-family:Azonix;-inkscape-font-specification:Azonix;letter-spacing:0px;word-spacing:0px;fill:#000000;fill-opacity:1;stroke:none;stroke-width:0.264583">
        <path
           d="m 51.337724,159.90459 -14.8844,-29.21 -14.8844,29.21 -3.2512,6.35 h 7.112 l 3.2512,-6.35 7.7724,-15.24 7.7724,15.24 3.2512,6.35 h 7.112 z"
           style="font-size:50.8px;fill:#000000;fill-opacity:1;stroke-width:0.264583"
           id="path971" />
        <path
           d="m 70.325018,137.04459 h 17.78 v -6.35 h -17.78 c -9.8044,0 -17.78,7.9756 -17.78,17.78 0,9.8044 7.9756,17.78 17.78,17.78 h 17.78 v -19.5072 h -17.78 v 6.35 h 11.43 v 6.8072 h -11.43 c -6.2992,0 -11.43,-5.1308 -11.43,-11.43 0,-6.2992 5.1308,-11.43 11.43,-11.43 z"
           style="font-size:50.8px;fill:#000000;fill-opacity:1;stroke-width:0.264583"
           id="path973" />
        <path
           d="m 103.89271,159.90459 c -2.2352,-0.3048 -4.013204,-2.0828 -4.318004,-4.318 v -24.8412 h -6.35 v 24.2316 c 0,1.778 0.4064,3.4544 1.1684,4.9784 1.0668,2.2352 2.8956,4.064 5.1308,5.1816 1.524004,0.762 3.200404,1.1684 4.978404,1.1684 h 18.034 v -6.35 z"
           style="font-size:50.8px;fill:#000000;fill-opacity:1;stroke-width:0.264583"
           id="path975" />
        <path
           d="m 118.12861,130.74539 v 6.35 h 14.5796 v 29.21 h 6.35 v -29.21 h 14.5796 v -6.35 z"
           style="font-size:50.8px;fill:#000000;fill-opacity:1;stroke-width:0.264583"
           id="path977" />
        <path
           d="m 165.15829,166.25459 v -35.56 h -6.35 v 35.56 z"
           style="font-size:50.8px;fill:#000000;fill-opacity:1;stroke-width:0.264583"
           id="path979" />
      </g>
      <g
         aria-label="CONNECT.COLLABORATE.CREATE."
         id="text823"
         style="font-style:normal;font-variant:normal;font-weight:normal;font-stretch:normal;font-size:2.82222px;line-height:0;font-family:Azonix;-inkscape-font-specification:Azonix;letter-spacing:0px;word-spacing:0px;fill:#000000;fill-opacity:1;stroke:none;stroke-width:0.264583">
        <path
           d="m 23.812502,173.40903 q 0,-0.3175 0.0508,-0.62865 0.05715,-0.31115 0.20955,-0.6477 0.1524,-0.33655 0.37465,-0.5842 0.2286,-0.254 0.6096,-0.4191 0.38735,-0.1651 0.86995,-0.1651 1.5113,0 1.78435,1.5113 h -0.60325 q -0.1016,-0.4953 -0.40005,-0.74295 -0.29845,-0.24765 -0.8509,-0.24765 -0.6731,0 -1.0668,0.51435 -0.38735,0.51435 -0.38735,1.40335 0,0.86995 0.4064,1.3843 0.4064,0.508 1.09855,0.508 0.5715,0 0.8763,-0.3175 0.3048,-0.32385 0.41275,-0.99695 h 0.6096 q -0.20955,1.83515 -1.905,1.83515 -0.47625,0 -0.85725,-0.15875 -0.37465,-0.1651 -0.60325,-0.41275 -0.22225,-0.24765 -0.37465,-0.57785 -0.14605,-0.33655 -0.2032,-0.64135 -0.0508,-0.3048 -0.0508,-0.61595 z"
           style="font-style:normal;font-variant:normal;font-weight:normal;font-stretch:normal;font-size:6.35px;font-family:FreeSans;-inkscape-font-specification:FreeSans;letter-spacing:1.09008px;fill:#000000;fill-opacity:1;stroke-width:0.264583"
           id="path982" />
        <path
           d="m 33.875033,173.42808 q 0,1.0287 -0.6096,1.70815 -0.6096,0.67945 -1.6256,0.67945 -1.0033,0 -1.61925,-0.66675 -0.61595,-0.6731 -0.61595,-1.75895 0,-1.08585 0.61595,-1.7526 0.61595,-0.6731 1.6129,-0.6731 1.016,0 1.6256,0.6731 0.61595,0.6731 0.61595,1.7907 z m -2.24155,-1.9431 q -0.7366,0 -1.18745,0.52705 -0.45085,0.5207 -0.45085,1.37795 0,0.85725 0.45085,1.3843 0.4572,0.5207 1.1938,0.5207 0.7366,0 1.18745,-0.5207 0.4572,-0.5207 0.4572,-1.3589 0,-0.8763 -0.45085,-1.40335 -0.45085,-0.52705 -1.20015,-0.52705 z"
           style="font-style:normal;font-variant:normal;font-weight:normal;font-stretch:normal;font-size:6.35px;font-family:FreeSans;-inkscape-font-specification:FreeSans;letter-spacing:1.09008px;fill:#000000;fill-opacity:1;stroke-width:0.264583"
           id="path984" />
        <path
           d="m 39.341552,171.04048 v 4.62915 h -0.66675 l -2.39395,-3.75285 v 3.75285 h -0.5588 v -4.62915 h 0.64135 l 2.41935,3.7846 v -3.7846 z"
           style="font-style:normal;font-variant:normal;font-weight:normal;font-stretch:normal;font-size:6.35px;font-family:FreeSans;-inkscape-font-specification:FreeSans;letter-spacing:1.09008px;fill:#000000;fill-opacity:1;stroke-width:0.264583"
           id="path986" />
        <path
           d="m 45.07011,171.04048 v 4.62915 h -0.66675 l -2.39395,-3.75285 v 3.75285 h -0.5588 v -4.62915 h 0.64135 l 2.41935,3.7846 v -3.7846 z"
           style="font-style:normal;font-variant:normal;font-weight:normal;font-stretch:normal;font-size:6.35px;font-family:FreeSans;-inkscape-font-specification:FreeSans;letter-spacing:1.09008px;fill:#000000;fill-opacity:1;stroke-width:0.264583"
           id="path988" />
        <path
           d="m 47.769715,173.56143 v 1.5875 h 2.7305 v 0.5207 h -3.32105 v -4.62915 h 3.20675 v 0.5207 h -2.6162 v 1.47955 h 2.52095 v 0.5207 z"
           style="font-style:normal;font-variant:normal;font-weight:normal;font-stretch:normal;font-size:6.35px;font-family:FreeSans;-inkscape-font-specification:FreeSans;letter-spacing:1.09008px;fill:#000000;fill-opacity:1;stroke-width:0.264583"
           id="path990" />
        <path
           d="m 52.033604,173.40903 q 0,-0.3175 0.0508,-0.62865 0.05715,-0.31115 0.20955,-0.6477 0.1524,-0.33655 0.37465,-0.5842 0.2286,-0.254 0.6096,-0.4191 0.38735,-0.1651 0.86995,-0.1651 1.5113,0 1.78435,1.5113 h -0.60325 q -0.1016,-0.4953 -0.40005,-0.74295 -0.29845,-0.24765 -0.8509,-0.24765 -0.6731,0 -1.0668,0.51435 -0.38735,0.51435 -0.38735,1.40335 0,0.86995 0.4064,1.3843 0.4064,0.508 1.09855,0.508 0.5715,0 0.8763,-0.3175 0.3048,-0.32385 0.41275,-0.99695 h 0.6096 q -0.20955,1.83515 -1.905,1.83515 -0.47625,0 -0.85725,-0.15875 -0.37465,-0.1651 -0.60325,-0.41275 -0.22225,-0.24765 -0.37465,-0.57785 -0.14605,-0.33655 -0.2032,-0.64135 -0.0508,-0.3048 -0.0508,-0.61595 z"
           style="font-style:normal;font-variant:normal;font-weight:normal;font-stretch:normal;font-size:6.35px;font-family:FreeSans;-inkscape-font-specification:FreeSans;letter-spacing:1.09008px;fill:#000000;fill-opacity:1;stroke-width:0.264583"
           id="path992" />
        <path
           d="m 59.676785,171.56118 v 4.10845 h -0.59055 v -4.10845 h -1.524 v -0.5207 h 3.6322 v 0.5207 z"
           style="font-style:normal;font-variant:normal;font-weight:normal;font-stretch:normal;font-size:6.35px;font-family:FreeSans;-inkscape-font-specification:FreeSans;letter-spacing:1.09008px;fill:#000000;fill-opacity:1;stroke-width:0.264583"
           id="path994" />
        <path
           d="m 63.648575,175.00923 v 0.6604 h -0.6604 v -0.6604 z"
           style="font-style:normal;font-variant:normal;font-weight:normal;font-stretch:normal;font-size:6.35px;font-family:FreeSans;-inkscape-font-specification:FreeSans;letter-spacing:1.09008px;fill:#000000;fill-opacity:1;stroke-width:0.264583"
           id="path996" />
        <path
           d="m 65.411753,173.40903 q 0,-0.3175 0.0508,-0.62865 0.05715,-0.31115 0.20955,-0.6477 0.1524,-0.33655 0.37465,-0.5842 0.2286,-0.254 0.6096,-0.4191 0.38735,-0.1651 0.86995,-0.1651 1.5113,0 1.78435,1.5113 h -0.60325 q -0.1016,-0.4953 -0.40005,-0.74295 -0.29845,-0.24765 -0.8509,-0.24765 -0.6731,0 -1.0668,0.51435 -0.38735,0.51435 -0.38735,1.40335 0,0.86995 0.4064,1.3843 0.4064,0.508 1.09855,0.508 0.5715,0 0.8763,-0.3175 0.3048,-0.32385 0.41275,-0.99695 h 0.6096 q -0.20955,1.83515 -1.905,1.83515 -0.47625,0 -0.85725,-0.15875 -0.37465,-0.1651 -0.60325,-0.41275 -0.22225,-0.24765 -0.37465,-0.57785 -0.14605,-0.33655 -0.2032,-0.64135 -0.0508,-0.3048 -0.0508,-0.61595 z"
           style="font-style:normal;font-variant:normal;font-weight:normal;font-stretch:normal;font-size:6.35px;font-family:FreeSans;-inkscape-font-specification:FreeSans;letter-spacing:1.09008px;fill:#000000;fill-opacity:1;stroke-width:0.264583"
           id="path998" />
        <path
           d="m 75.474285,173.42808 q 0,1.0287 -0.6096,1.70815 -0.609599,0.67945 -1.625599,0.67945 -1.0033,0 -1.61925,-0.66675 -0.61595,-0.6731 -0.61595,-1.75895 0,-1.08585 0.61595,-1.7526 0.61595,-0.6731 1.6129,-0.6731 1.016,0 1.625599,0.6731 0.61595,0.6731 0.61595,1.7907 z m -2.241549,-1.9431 q -0.7366,0 -1.18745,0.52705 -0.45085,0.5207 -0.45085,1.37795 0,0.85725 0.45085,1.3843 0.4572,0.5207 1.1938,0.5207 0.7366,0 1.18745,-0.5207 0.457199,-0.5207 0.457199,-1.3589 0,-0.8763 -0.450849,-1.40335 -0.45085,-0.52705 -1.20015,-0.52705 z"
           style="font-style:normal;font-variant:normal;font-weight:normal;font-stretch:normal;font-size:6.35px;font-family:FreeSans;-inkscape-font-specification:FreeSans;letter-spacing:1.09008px;fill:#000000;fill-opacity:1;stroke-width:0.264583"
           id="path1000" />
        <path
           d="m 77.911855,171.04048 v 4.10845 h 2.286 v 0.5207 h -2.87655 v -4.62915 z"
           style="font-style:normal;font-variant:normal;font-weight:normal;font-stretch:normal;font-size:6.35px;font-family:FreeSans;-inkscape-font-specification:FreeSans;letter-spacing:1.09008px;fill:#000000;fill-opacity:1;stroke-width:0.264583"
           id="path1002" />
        <path
           d="m 82.573812,171.04048 v 4.10845 h 2.286 v 0.5207 h -2.87655 v -4.62915 z"
           style="font-style:normal;font-variant:normal;font-weight:normal;font-stretch:normal;font-size:6.35px;font-family:FreeSans;-inkscape-font-specification:FreeSans;letter-spacing:1.09008px;fill:#000000;fill-opacity:1;stroke-width:0.264583"
           id="path1004" />
        <path
           d="m 89.134415,174.27898 h -1.78435 l -0.48895,1.39065 h -0.62865 l 1.651,-4.62915 h 0.762 l 1.6256,4.62915 h -0.6604 z m -0.1651,-0.4953 -0.7112,-2.1082 -0.762,2.1082 z"
           style="font-style:normal;font-variant:normal;font-weight:normal;font-stretch:normal;font-size:6.35px;font-family:FreeSans;-inkscape-font-specification:FreeSans;letter-spacing:1.09008px;fill:#000000;fill-opacity:1;stroke-width:0.264583"
           id="path1006" />
        <path
           d="m 95.418897,174.34883 q 0,0.5969 -0.37465,0.95885 -0.37465,0.36195 -0.9906,0.36195 h -2.08915 v -4.62915 h 1.8796 q 0.38735,0 0.6731,0.1143 0.28575,0.1143 0.42545,0.3048 0.14605,0.18415 0.20955,0.37465 0.0635,0.18415 0.0635,0.381 0,0.7112 -0.64135,1.00965 0.4445,0.17145 0.64135,0.43815 0.2032,0.2667 0.2032,0.6858 z m -1.72085,-1.31445 q 0.9271,0 0.9271,-0.7366 0,-0.7366 -0.9271,-0.7366 h -1.143 v 1.4732 z m 0.29845,2.11455 q 0.31115,0 0.508,-0.13335 0.19685,-0.1397 0.26035,-0.3048 0.0635,-0.1651 0.0635,-0.3556 0,-0.36195 -0.2159,-0.57785 -0.2159,-0.22225 -0.61595,-0.22225 h -1.44145 v 1.59385 z"
           style="font-style:normal;font-variant:normal;font-weight:normal;font-stretch:normal;font-size:6.35px;font-family:FreeSans;-inkscape-font-specification:FreeSans;letter-spacing:1.09008px;fill:#000000;fill-opacity:1;stroke-width:0.264583"
           id="path1008" />
        <path
           d="m 101.48777,173.42808 q 0,1.0287 -0.6096,1.70815 -0.6096,0.67945 -1.625596,0.67945 -1.0033,0 -1.61925,-0.66675 -0.61595,-0.6731 -0.61595,-1.75895 0,-1.08585 0.61595,-1.7526 0.61595,-0.6731 1.6129,-0.6731 1.015996,0 1.625596,0.6731 0.61595,0.6731 0.61595,1.7907 z m -2.241546,-1.9431 q -0.7366,0 -1.18745,0.52705 -0.45085,0.5207 -0.45085,1.37795 0,0.85725 0.45085,1.3843 0.4572,0.5207 1.1938,0.5207 0.7366,0 1.187446,-0.5207 0.4572,-0.5207 0.4572,-1.3589 0,-0.8763 -0.45085,-1.40335 -0.450846,-0.52705 -1.200146,-0.52705 z"
           style="font-style:normal;font-variant:normal;font-weight:normal;font-stretch:normal;font-size:6.35px;font-family:FreeSans;-inkscape-font-specification:FreeSans;letter-spacing:1.09008px;fill:#000000;fill-opacity:1;stroke-width:0.264583"
           id="path1010" />
        <path
           d="m 106.14784,173.38363 q 0.2032,0.0889 0.33655,0.20955 0.1397,0.12065 0.19685,0.27305 0.0635,0.1524 0.0825,0.28575 0.019,0.13335 0.019,0.3175 0,0.0572 -0.006,0.1651 0,0.10795 0,0.15875 0,0.26035 0.0572,0.43815 0.0571,0.1778 0.22225,0.2921 v 0.14605 h -0.71755 q -0.127,-0.2921 -0.127,-0.75565 v -0.41275 q 0,-0.42545 -0.18415,-0.6223 -0.18415,-0.2032 -0.57785,-0.2032 h -1.524 v 1.9939 h -0.59055 v -4.62915 h 2.1336 q 0.67945,0 1.0414,0.32385 0.3683,0.3175 0.3683,0.9144 0,0.3937 -0.17145,0.65405 -0.17145,0.26035 -0.5588,0.45085 z m 0.1143,-1.02235 q 0,-0.4572 -0.2413,-0.62865 -0.2413,-0.17145 -0.66675,-0.17145 h -1.42875 v 1.59385 h 1.42875 q 0.4699,0 0.6858,-0.1905 0.22225,-0.1905 0.22225,-0.60325 z"
           style="font-style:normal;font-variant:normal;font-weight:normal;font-stretch:normal;font-size:6.35px;font-family:FreeSans;-inkscape-font-specification:FreeSans;letter-spacing:1.09008px;fill:#000000;fill-opacity:1;stroke-width:0.264583"
           id="path1012" />
        <path
           d="m 111.41612,174.27898 h -1.78435 l -0.48895,1.39065 h -0.62865 l 1.651,-4.62915 h 0.762 l 1.6256,4.62915 h -0.6604 z m -0.1651,-0.4953 -0.7112,-2.1082 -0.762,2.1082 z"
           style="font-style:normal;font-variant:normal;font-weight:normal;font-stretch:normal;font-size:6.35px;font-family:FreeSans;-inkscape-font-specification:FreeSans;letter-spacing:1.09008px;fill:#000000;fill-opacity:1;stroke-width:0.264583"
           id="path1014" />
        <path
           d="m 116.04325,171.56118 v 4.10845 h -0.59055 v -4.10845 h -1.524 v -0.5207 h 3.6322 v 0.5207 z"
           style="font-style:normal;font-variant:normal;font-weight:normal;font-stretch:normal;font-size:6.35px;font-family:FreeSans;-inkscape-font-specification:FreeSans;letter-spacing:1.09008px;fill:#000000;fill-opacity:1;stroke-width:0.264583"
           id="path1016" />
        <path
           d="m 119.94519,173.56143 v 1.5875 h 2.7305 v 0.5207 h -3.32105 v -4.62915 h 3.20675 v 0.5207 h -2.6162 v 1.47955 h 2.52095 v 0.5207 z"
           style="font-style:normal;font-variant:normal;font-weight:normal;font-stretch:normal;font-size:6.35px;font-family:FreeSans;-inkscape-font-specification:FreeSans;letter-spacing:1.09008px;fill:#000000;fill-opacity:1;stroke-width:0.264583"
           id="path1018" />
        <path
           d="m 125.12348,175.00923 v 0.6604 h -0.6604 v -0.6604 z"
           style="font-style:normal;font-variant:normal;font-weight:normal;font-stretch:normal;font-size:6.35px;font-family:FreeSans;-inkscape-font-specification:FreeSans;letter-spacing:1.09008px;fill:#000000;fill-opacity:1;stroke-width:0.264583"
           id="path1020" />
        <path
           d="m 126.88666,173.40903 q 0,-0.3175 0.0508,-0.62865 0.0571,-0.31115 0.20955,-0.6477 0.1524,-0.33655 0.37465,-0.5842 0.2286,-0.254 0.6096,-0.4191 0.38735,-0.1651 0.86995,-0.1651 1.5113,0 1.78435,1.5113 h -0.60325 q -0.1016,-0.4953 -0.40005,-0.74295 -0.29845,-0.24765 -0.8509,-0.24765 -0.6731,0 -1.0668,0.51435 -0.38735,0.51435 -0.38735,1.40335 0,0.86995 0.4064,1.3843 0.4064,0.508 1.09855,0.508 0.5715,0 0.8763,-0.3175 0.3048,-0.32385 0.41275,-0.99695 h 0.6096 q -0.20955,1.83515 -1.905,1.83515 -0.47625,0 -0.85725,-0.15875 -0.37465,-0.1651 -0.60325,-0.41275 -0.22225,-0.24765 -0.37465,-0.57785 -0.14605,-0.33655 -0.2032,-0.64135 -0.0508,-0.3048 -0.0508,-0.61595 z"
           style="font-style:normal;font-variant:normal;font-weight:normal;font-stretch:normal;font-size:6.35px;font-family:FreeSans;-inkscape-font-specification:FreeSans;letter-spacing:1.09008px;fill:#000000;fill-opacity:1;stroke-width:0.264583"
           id="path1022" />
        <path
           d="m 135.54584,173.38363 q 0.2032,0.0889 0.33655,0.20955 0.1397,0.12065 0.19685,0.27305 0.0635,0.1524 0.0825,0.28575 0.019,0.13335 0.019,0.3175 0,0.0572 -0.006,0.1651 0,0.10795 0,0.15875 0,0.26035 0.0572,0.43815 0.0572,0.1778 0.22225,0.2921 v 0.14605 h -0.71755 q -0.127,-0.2921 -0.127,-0.75565 v -0.41275 q 0,-0.42545 -0.18415,-0.6223 -0.18415,-0.2032 -0.57785,-0.2032 h -1.524 v 1.9939 h -0.59055 v -4.62915 h 2.1336 q 0.67945,0 1.0414,0.32385 0.3683,0.3175 0.3683,0.9144 0,0.3937 -0.17145,0.65405 -0.17145,0.26035 -0.5588,0.45085 z m 0.1143,-1.02235 q 0,-0.4572 -0.2413,-0.62865 -0.2413,-0.17145 -0.66675,-0.17145 h -1.42875 v 1.59385 h 1.42875 q 0.4699,0 0.6858,-0.1905 0.22225,-0.1905 0.22225,-0.60325 z"
           style="font-style:normal;font-variant:normal;font-weight:normal;font-stretch:normal;font-size:6.35px;font-family:FreeSans;-inkscape-font-specification:FreeSans;letter-spacing:1.09008px;fill:#000000;fill-opacity:1;stroke-width:0.264583"
           id="path1024" />
        <path
           d="m 138.91547,173.56143 v 1.5875 h 2.7305 v 0.5207 h -3.32105 v -4.62915 h 3.20675 v 0.5207 h -2.6162 v 1.47955 h 2.52095 v 0.5207 z"
           style="font-style:normal;font-variant:normal;font-weight:normal;font-stretch:normal;font-size:6.35px;font-family:FreeSans;-inkscape-font-specification:FreeSans;letter-spacing:1.09008px;fill:#000000;fill-opacity:1;stroke-width:0.264583"
           id="path1026" />
        <path
           d="m 145.92256,174.27898 h -1.78435 l -0.48895,1.39065 h -0.62865 l 1.651,-4.62915 h 0.762 l 1.6256,4.62915 h -0.6604 z m -0.1651,-0.4953 -0.7112,-2.1082 -0.762,2.1082 z"
           style="font-style:normal;font-variant:normal;font-weight:normal;font-stretch:normal;font-size:6.35px;font-family:FreeSans;-inkscape-font-specification:FreeSans;letter-spacing:1.09008px;fill:#000000;fill-opacity:1;stroke-width:0.264583"
           id="path1028" />
        <path
           d="m 150.54969,171.56118 v 4.10845 h -0.59055 v -4.10845 h -1.524 v -0.5207 h 3.6322 v 0.5207 z"
           style="font-style:normal;font-variant:normal;font-weight:normal;font-stretch:normal;font-size:6.35px;font-family:FreeSans;-inkscape-font-specification:FreeSans;letter-spacing:1.09008px;fill:#000000;fill-opacity:1;stroke-width:0.264583"
           id="path1030" />
        <path
           d="m 154.45162,173.56143 v 1.5875 h 2.7305 v 0.5207 h -3.32105 v -4.62915 h 3.20675 v 0.5207 h -2.6162 v 1.47955 h 2.52095 v 0.5207 z"
           style="font-style:normal;font-variant:normal;font-weight:normal;font-stretch:normal;font-size:6.35px;font-family:FreeSans;-inkscape-font-specification:FreeSans;letter-spacing:1.09008px;fill:#000000;fill-opacity:1;stroke-width:0.264583"
           id="path1032" />
        <path
           d="m 159.62992,175.00923 v 0.6604 h -0.6604 v -0.6604 z"
           style="font-style:normal;font-variant:normal;font-weight:normal;font-stretch:normal;font-size:6.35px;font-family:FreeSans;-inkscape-font-specification:FreeSans;letter-spacing:1.09008px;fill:#000000;fill-opacity:1;stroke-width:0.264583"
           id="path1034" />
      </g>
    </g>
  </g>
</svg>
